<?xml version="1.0" encoding="utf-8"?>
<!-- Generator: $$$/GeneralStr/196=Adobe Illustrator 27.6.0, SVG Export Plug-In . SVG Version: 6.00 Build 0)  -->
<svg version="1.1" id="_x3C_Layer_x3E_" xmlns="http://www.w3.org/2000/svg" xmlns:xlink="http://www.w3.org/1999/xlink" x="0px"
	 y="0px" viewBox="0 0 381.4 321" style="enable-background:new 0 0 381.4 321;" xml:space="preserve">
<style type="text/css">
	.st0{fill:#A45F06;}
	.st1{fill:#F0F0F0;}
	.st2{fill:#F0A646;}
	.st3{fill:#B8D5DC;}
	.st4{fill:#46B3F0;}
	.st5{fill:#FFB27D;}
	.st6{fill:#331832;}
	.st7{fill:#DEDEDE;}
	.st8{fill:#764678;}
	.st9{fill:#366F90;}
	.st10{fill:#020202;}
	.st11{fill:#080435;}
	.st12{fill:#E9845C;}
	.st13{fill:#E9633E;}
	.st14{fill:#FFFFFF;}
</style>
<g>
	<g>
		<g>
			<path class="st0" d="M226.1,293.9l-183.4,3.2c-7.9,0.1-14.4-6.1-14.5-14l-5-244.3c-0.2-7.8,6-14.3,13.8-14.6l196.9-7.5
				c8.3-0.3,15.1,6.5,14.8,14.8l-8.4,248.6C239.9,287.7,233.7,293.8,226.1,293.9z"/>
		</g>
		<g>
			<path class="st1" d="M218.1,281.8l-167.2,2.9c-7.2,0.1-13.1-5.6-13.3-12.8L35.9,41.9c0-3.1,2.4-5.7,5.5-5.8L227.3,29
				c6.3-0.2,11.5,4.9,11.3,11.3l-7.8,229C230.7,276.2,225,281.7,218.1,281.8z"/>
		</g>
		<g>
			<path class="st2" d="M90.3,41.6l85.1-2.7c4-0.1,7.1-3.6,6.7-7.6l-0.7-6.5c-0.7-7.1-6.8-12.4-13.9-12.2l-67.9,1.7
				c-7.2,0.2-13.1,5.6-13.9,12.7l-1,8.4C84.2,38.8,86.9,41.7,90.3,41.6z"/>
		</g>
		<g>
			<g>
				<g>
					<path class="st3" d="M96.8,122.3c-0.2,0-0.5,0-0.7,0l-27.2-1.9c-5.3-0.4-9.4-4.8-9.4-10.1V87.9c0-5.2,4-9.3,9.2-9.5l30-1
						c2.5-0.1,5,0.9,6.8,2.7c1.8,1.8,2.8,4.3,2.7,6.8l-0.8,25.2c-0.1,2.9-1.3,5.5-3.5,7.5C101.8,121.3,99.4,122.3,96.8,122.3z
						 M96.5,115c0.9,0.1,1.7-0.2,2.4-0.8c0.7-0.6,1-1.4,1.1-2.3l0.8-25.2c0-0.7-0.3-1.2-0.6-1.4c-0.2-0.2-0.7-0.6-1.4-0.6l-30,1
						c-1.2,0-2.2,1-2.2,2.3v22.4c0,1.5,1.2,2.8,2.7,2.9L96.5,115z"/>
				</g>
				<g>
					<path class="st4" d="M72.4,89.5c-1.1-0.9-2.6,0.3-1.9,1.6l10.2,17.4c1.9,3.8,5.8,2.3,8.1-1.2l19-29.4c0.7-1-0.5-2.2-1.4-1.4
						L89.2,94.6c-8,7.7-8.7,3.6-13.3-1.2C74.6,92.1,72.4,89.5,72.4,89.5z"/>
				</g>
			</g>
		</g>
		<g>
			<g>
				<g>
					<path class="st3" d="M96.8,185.7c-0.2,0-0.5,0-0.7,0l-27.2-1.9c-5.3-0.4-9.4-4.8-9.4-10.1v-22.4c0-5.2,4-9.3,9.2-9.5l30-1
						c2.5-0.1,5,0.9,6.8,2.7c1.8,1.8,2.8,4.3,2.7,6.8l-0.8,25.2c-0.1,2.9-1.3,5.5-3.5,7.5C101.8,184.8,99.4,185.7,96.8,185.7z
						 M96.5,178.5c0.9,0.1,1.7-0.2,2.4-0.8c0.7-0.6,1-1.4,1.1-2.3l0.8-25.2c0-0.7-0.3-1.2-0.6-1.4c-0.2-0.2-0.7-0.6-1.4-0.6l-30,1
						c-1.2,0-2.2,1-2.2,2.3v22.4c0,1.5,1.2,2.8,2.7,2.9L96.5,178.5z"/>
				</g>
				<g>
					<path class="st4" d="M72.4,153c-1.1-0.9-2.6,0.3-1.9,1.6L80.7,172c1.9,3.8,5.8,2.3,8.1-1.2l19-29.4c0.7-1-0.5-2.2-1.4-1.4
						l-17.2,18.1c-8,7.7-8.7,3.6-13.3-1.2C74.6,155.5,72.4,153,72.4,153z"/>
				</g>
			</g>
			<g>
				<path class="st3" d="M209.2,160.4l-77.8-1.9c-1.8,0-3.3-1.5-3.3-3.3l0,0c0-1.8,1.5-3.3,3.3-3.3H209c1.7,0,3.1,1.3,3.3,2.9
					l0.2,1.9C212.8,158.6,211.2,160.4,209.2,160.4z"/>
			</g>
			<g>
				<path class="st3" d="M209.2,174.9l-77.8-1.9c-1.8,0-3.3-1.5-3.3-3.3v0c0-1.8,1.5-3.3,3.3-3.3H209c1.7,0,3.1,1.3,3.3,2.9l0.2,1.9
					C212.8,173.1,211.2,174.9,209.2,174.9z"/>
			</g>
		</g>
		<g>
			<g>
				<g>
					<path class="st3" d="M96.8,247.6c-0.2,0-0.5,0-0.7,0l-27.2-1.9c-5.3-0.4-9.4-4.8-9.4-10.1v-22.4c0-5.2,4-9.3,9.2-9.5l30-1
						c2.5-0.1,5,0.9,6.8,2.7c1.8,1.8,2.8,4.3,2.7,6.8l-0.8,25.2c-0.1,2.9-1.3,5.5-3.5,7.5C101.8,246.7,99.4,247.6,96.8,247.6z
						 M96.5,240.4c0.9,0.1,1.7-0.2,2.4-0.8c0.7-0.6,1-1.4,1.1-2.3l0.8-25.2c0-0.7-0.3-1.2-0.6-1.4c-0.2-0.2-0.7-0.6-1.4-0.6l-30,1
						c-1.2,0-2.2,1-2.2,2.3v22.4c0,1.5,1.2,2.8,2.7,2.9L96.5,240.4z"/>
				</g>
				<g>
					<path class="st4" d="M72.4,214.9c-1.1-0.9-2.6,0.3-1.9,1.6l10.2,17.4c1.9,3.8,5.8,2.3,8.1-1.2l19-29.4c0.7-1-0.5-2.2-1.4-1.4
						l-17.2,18.1c-8,7.7-8.7,3.6-13.3-1.2C74.6,217.4,72.4,214.9,72.4,214.9z"/>
				</g>
			</g>
			<g>
				<path class="st3" d="M209.2,222.3l-77.8-1.9c-1.8,0-3.3-1.5-3.3-3.3l0,0c0-1.8,1.5-3.3,3.3-3.3H209c1.7,0,3.1,1.3,3.3,2.9
					l0.2,1.9C212.8,220.5,211.2,222.3,209.2,222.3z"/>
			</g>
			<g>
				<path class="st3" d="M209.2,236.8l-77.8-1.9c-1.8,0-3.3-1.5-3.3-3.3l0,0c0-1.8,1.5-3.3,3.3-3.3H209c1.7,0,3.1,1.3,3.3,2.9
					l0.2,1.9C212.8,235,211.2,236.8,209.2,236.8z"/>
			</g>
		</g>
	</g>
	<g>
		<g>
			<path class="st5" d="M239,134.1c0,0-21.2,0.5-25.1-19.3l-14.8-3.1c0,0-5.3,30.5,34.7,38.1L239,134.1z"/>
		</g>
		<g>
			<g>
				<path class="st0" d="M342.6,113.4l-5.1,33.5l-19.3-2.6l-159.2-21.3c0,0,2.6-3.6,4.3-9.4c0.5-1.8,1-3.8,1.3-6
					c0.1-1.2,0.2-2.4,0.3-3.7c0.1-4-0.1-7.6-0.4-10.7c-0.3-3.2-0.7-5.8-1.1-7.9c-0.8-4-1.6-6-1.6-6l164.6,30.9L342.6,113.4z"/>
			</g>
			<g>
				<path class="st2" d="M321.5,122.5l-1.4,9l-155.7-23.8c0.1-1.2,0.2-2.4,0.3-3.7c0.1-4-0.1-7.6-0.4-10.7L321.5,122.5z"/>
			</g>
			<g>
				<path class="st2" d="M326,114.6L163.2,85.4c-0.8-4-1.6-6-1.6-6l164.6,30.9L326,114.6z"/>
			</g>
			<g>
				<path class="st2" d="M319.2,137.6l-1,6.8l-159.2-21.3c0,0,2.6-3.6,4.3-9.4L319.2,137.6z"/>
			</g>
			<g>
				<g>
					<path class="st5" d="M158.9,123.1c0,0-17.8-12.2-27.6-20.4c-3.7-3.1-6.3-5.7-6.4-6.8c0-1.2,3.1-3.1,7.7-5.2
						c10.8-5,29.1-11.2,29.1-11.2C174,107,158.9,123.1,158.9,123.1z"/>
				</g>
				<g>
					<path class="st6" d="M131.3,102.7c-3.7-3.1-6.3-5.7-6.4-6.8c0-1.2,3.1-3.1,7.7-5.2C133.5,93.7,134,98.4,131.3,102.7z"/>
				</g>
			</g>
			<g>
				<polygon class="st0" points="322,109.6 342.6,113.4 337.4,146.9 314.9,143.9 				"/>
			</g>
			<g>
				<path class="st7" d="M342.6,113.4c0,0,22.5,2.9,22.6,8.4c0.1,5.5-1.8,25.2-4.9,26.2c-3.2,0.9-22.8-1.1-22.8-1.1L342.6,113.4z"/>
			</g>
		</g>
		<g>
			<path class="st8" d="M257.1,122.8c0,0-0.7-2.7,2.4-3.6s1,6.4,8.9,5.6c7.9-0.8,5.2,2.5,7.8,5c2.5,2.4,13.7-3.1,17.6,6.4
				c4,9.5-3,16.6-16.8,17c-13.8,0.5-8.3,8.1-20,3.9c-11.7-4.2-6.5-22.8-3.2-25.7C257.1,128.4,257.1,122.8,257.1,122.8z"/>
		</g>
		<g>
			<path class="st6" d="M246.3,300.2c0,0-0.1,4.2-3,5.4c-2.9,1.2-11.2,2.3-8.1,5c1.8,1.6,10.2,0.6,12.6,0.6c2.4,0,4.6,1,6.4-0.6
				c1.9-1.7,0-10.4,0-10.4s-2,1.1-3.9,1C247.7,301.2,246.3,300.2,246.3,300.2z"/>
		</g>
		<g>
			<path class="st6" d="M279.3,300.2c0,0-0.1,4.2-3,5.4c-2.9,1.2-11.2,2.3-8.1,5c1.8,1.6,10.2,0.6,12.6,0.6c2.4,0,4.6,1,6.4-0.6
				c1.9-1.7,0-10.4,0-10.4s-2,1.1-3.9,1C280.6,301.2,279.3,300.2,279.3,300.2z"/>
		</g>
		<g>
			<path class="st2" d="M225,183.9c0,0,0.2,19.6,1.8,54.1c1.2,27.1,1,52.1,3.4,64c0.8,4.3,32.2,2.1,31.9-2.6l-7.4-83.6l-1.4-26.5
				L225,183.9z"/>
		</g>
		<g>
			<path class="st6" d="M276.9,199.5c-0.3,2.2-12.5,1.9-27.5,0c-15-1.9-26.6-5.1-26.4-7.3c0.3-2.2,12.3-2.4,27.3-0.5
				C265.3,193.6,277.1,197.4,276.9,199.5z"/>
		</g>
		<g>
			<path class="st2" d="M242.2,196.6L270,301.9c1.3,4.3,27.8,3.7,26.9-0.8l-21.6-99.7c-0.3-1.1-1.1-2.1-2.2-2.4
				C267.2,197.3,241.6,192.3,242.2,196.6z"/>
		</g>
		<g>
			<path class="st9" d="M271.1,138.6c0,0-2.8-9.6-18-9c-8.3,0.3-17.1-2-20.9,11c-3.8,12.6-7.9,32.4-9.1,51.7c0,0,24.8-5.4,53.9,7.2
				C276.9,199.5,277.8,156,271.1,138.6z"/>
		</g>
		<g>
			<path class="st9" d="M281.9,137.2l-9.5,7.8c0,0-37.7,11.1-43,5.8c-3.6-3.6-2.9-15.8-1.7-18.5c0,0,11.3-4.3,24.7-3.3
				c2.2,0.2,3.8,0.2,6,0C271.1,128.3,281.9,137.2,281.9,137.2z"/>
		</g>
		<g>
			<path class="st10" d="M258.1,257.8l-8.5-36.2c-1.5-4.7-4.7-8.6-8.9-11l0.3-0.5c4.3,2.5,7.6,6.5,9.2,11.3l0,0l8.5,36.3
				L258.1,257.8z"/>
		</g>
		<g>
			<path class="st5" d="M259.2,129.1c-1.7-0.2-3.1-1.2-3.8-2.8l-2.1-4.8l-0.6-1.4l-3.5-8.2l0.6,8.5l0.4,5.1l0.1,1.5
				c0.1,1.2-0.7,2.2-1.9,2.5l0,0c-0.6,1-1.5,3.1,1.1,3.9C252.5,134.4,257.5,132,259.2,129.1C259.2,129.1,259.2,129.1,259.2,129.1z"
				/>
		</g>
		<g>
			<path class="st6" d="M252.9,121.2c-0.2,2.7-2.7,4.4-2.7,4.4l0,0l-0.4-5.1C250.7,120.1,252.9,121.1,252.9,121.2z"/>
		</g>
		<g>
			
				<ellipse transform="matrix(0.3331 -0.9429 0.9429 0.3331 60.2834 310.8125)" class="st5" cx="249.9" cy="112.8" rx="9.9" ry="8"/>
		</g>
		<g>
			<g>
				<path class="st11" d="M249.1,112.6c0,0-0.1-0.1-0.1-0.1c0-0.1,0.1-0.2,0.2-0.2c0.1,0,1.4-0.2,2,1.3c0,0.1,0,0.2-0.1,0.2
					c-0.1,0-0.2,0-0.2-0.1c-0.6-0.8-1.7-1.1-1.7-1.1C249.2,112.7,249.1,112.6,249.1,112.6z"/>
			</g>
		</g>
		<g>
			<path class="st11" d="M249.8,115c-0.1,0.4-0.5,0.7-0.8,0.6c-0.3-0.1-0.4-0.5-0.3-0.9c0.1-0.4,0.5-0.7,0.8-0.6
				C249.8,114.2,249.9,114.6,249.8,115z"/>
		</g>
		<g>
			<g>
				<path class="st11" d="M242.6,111.4c-0.1,0-0.1,0-0.1-0.1c0-0.1,0-0.2,0.1-0.2c0.1,0,1.2-0.7,2.4,0.4c0.1,0.1,0.1,0.2,0,0.3
					c-0.1,0.1-0.2,0.1-0.3,0c-0.9-0.5-1.9-0.4-2-0.3C242.7,111.4,242.7,111.4,242.6,111.4z"/>
			</g>
		</g>
		<g>
			<path class="st11" d="M244.2,113.3c0,0.4-0.2,0.8-0.5,0.8c-0.3,0-0.6-0.3-0.6-0.7c0-0.4,0.2-0.8,0.5-0.8
				C243.9,112.5,244.2,112.8,244.2,113.3z"/>
		</g>
		<g>
			<path class="st2" d="M264.8,197.2c0,0-29.9-5.7-39.6-3l4.6,6.9l17.3,1L264.8,197.2z"/>
		</g>
		<g>
			<path class="st8" d="M255,107.9c-0.9,1.6-4.9,1.5-7.7,0.7c-3.5-1-4.8,3.4-5.4,1.4c-0.7-2.1-0.4-7.9,3.6-10.1
				c4-2.2,13.2,0.3,13.8,3.4C260.1,107.9,255.7,106.6,255,107.9z"/>
		</g>
		<g>
			<path class="st8" d="M258.7,105.1c0,0-2.5-0.2-2.7,0.8c-0.3,1.1-2.5,2.4-1.3,3.6c1.3,1.2,1.5,1.7,1.1,2.8c-0.3,0.8,0.5,3,0.4,4.8
				c0,0.8-1,2.1-1,2.1s6.5,0.1,7.7-6.9C263.9,107.8,260.4,105,258.7,105.1z"/>
		</g>
		<g>
			<path class="st5" d="M256.8,116.8c-1.1,0.5-2.4,0.2-2.7-0.8c-0.4-0.9,0.3-2.1,1.4-2.6c1.1-0.5,2.4-0.2,2.7,0.8
				C258.5,115.1,257.9,116.3,256.8,116.8z"/>
		</g>
		<g>
			<path class="st11" d="M265.8,147.4c0.7,1.2,4.9-0.2,9.4-3c4.4-2.8,7.5-6,6.7-7.2c-0.7-1.2-4.9,0.2-9.4,3
				C268.1,143,265.1,146.2,265.8,147.4z"/>
		</g>
		<g>
			<g>
				<path class="st5" d="M278.4,180.5c0,0-5-4.6-9-4.2c-4,0.4-8.7,3.9-6.2,4.2c2.5,0.3,5.8-0.3,5.8-0.3s-7,1.5-5.9,3
					c1.1,1.5,7.1,0.1,7.1,0.1s-8.2,2.4-6.7,3.5c1.5,1.1,7.7-0.8,7.7-0.8s-7.5,2.6-5.8,3.8c1.7,1.2,6.2-2.2,7.3-0.7
					c1.1,1.5,3,7.3,7.5,4.9L278.4,180.5z"/>
			</g>
			<g>
				<path class="st12" d="M269,180.4c-0.1,0-0.1,0-0.1-0.1c0-0.1,0-0.2,0.1-0.2c0.1,0,2-0.7,3.1,0c0.1,0,0.1,0.1,0,0.2
					c0,0.1-0.1,0.1-0.2,0C270.9,179.7,269.1,180.4,269,180.4C269,180.4,269,180.4,269,180.4z"/>
			</g>
			<g>
				<path class="st12" d="M270.2,183.5c-0.1,0-0.1,0-0.1-0.1c0-0.1,0-0.2,0.1-0.2c0.1,0,1.9-0.8,3.6,0c0.1,0,0.1,0.1,0.1,0.2
					c0,0.1-0.1,0.1-0.2,0.1C272.1,182.8,270.3,183.5,270.2,183.5C270.2,183.5,270.2,183.5,270.2,183.5z"/>
			</g>
			<g>
				<path class="st12" d="M271.1,186.2c-0.1,0-0.1,0-0.1-0.1c0-0.1,0-0.2,0.1-0.2c0.1,0,2.4-0.9,3.4,0c0.1,0.1,0.1,0.1,0,0.2
					c-0.1,0.1-0.1,0.1-0.2,0C273.4,185.4,271.2,186.2,271.1,186.2C271.2,186.2,271.1,186.2,271.1,186.2z"/>
			</g>
		</g>
		<g>
			<g>
				<path class="st5" d="M280.1,194c6.8-2.6,16.9-9.1,18.9-19.2c1.5-7.8-1.3-16.6-8.3-26.4c-4.8-6.6-10.1-10.2-10.4-10.4
					c0,0-2.1-0.5-6.6,2.2c-5.4,3.3-6.2,6.3-6.2,6.3c5.2,4.8,17.7,14.7,17.2,22.3c-0.3,4.4-3.2,8.6-8.2,10.5L280.1,194z"/>
			</g>
		</g>
		<g>
			<g>
				<path class="st13" d="M243.9,117.3c0,0,2.4,0.9,5.1,0.9c0,0-0.6,2.4-3.3,1.7C244.2,119.4,243.9,117.3,243.9,117.3z"/>
			</g>
			<g>
				<path class="st14" d="M243.9,117.3c0,0,0.4,0.7,1.8,1.1c1.4,0.5,3.3-0.3,3.3-0.3S245.8,117.9,243.9,117.3z"/>
			</g>
		</g>
		<g>
			<g>
				<path class="st5" d="M213.1,86.2c0,0,3.1-0.7,3.2,2.6c0.1,4.2-2.9,10.5-4.3,8.2c-0.3-0.5-0.1-4.2-0.1-4.2s-1.6,6.6-3.4,5.6
					c-1.8-1-0.3-6.9-0.3-6.9s-2.1,5.9-3.5,4.5c-1.3-1.4-0.2-5.4-0.2-5.4s-1.8,5.4-3.3,3.7c-1.5-1.7,0.6-5.7,1.1-7.6
					c0.4-1.8,1.8-1.8,3.6-1.3c0,0,1.5-1,3,0.2c0.4,0.3,1.3-0.4,1.6-0.3C212,85.5,213.1,86.2,213.1,86.2z"/>
			</g>
		</g>
	</g>
</g>
</svg>
